# xmcd CD database file generated by OrangeCD 6.5
#
# Track frame offsets:
#	150
#	21806
#	42484
#	66823
#	76752
#	92723
#	105595
#	115693
#	125490
#	138271
#	150276
#	163381
#	174368
#	186526
#	197596
#
# Disc length: 2972 seconds
#
# Revision: 3
# Processed by: cddbd v1.5.2PL0 Copyright (c) Steve Scherf et al.
# Submitted via: OrangeCD 6.5
#
DISCID=c00b9a0f
DTITLE=Various Artist - Mojo Presents Let's Move - A Heavy Blues Collection
DYEAR=2012
DGENRE=Blues
TTITLE0=Burnside, R.L. - Goin' Down South
TTITLE1=Magic Sam Blues Band - I Feel So Good
TTITLE2=Kimbrough, Junior - I Gotta Try You Girl
TTITLE3=Howlin' Wolf - Shake For Me
TTITLE4=Taylor, Hound Dog and The House Rockers - Give Me Back My Wig
TTITLE5=Crudup, Arthur 'Big Boy' - That's All Right
TTITLE6=Lightnin' Hopkins - Let's Move
TTITLE7=Junior Wells's Chicago Blues Band with Buddy Guy - Chitlin Con Carne
TTITLE8=Hooker, John Lee - Devil's Jump
TTITLE9=Waters, Muddy - I Can't Be Satisfied
TTITLE10=Diddley, Bo - Watusi Bounce
TTITLE11=James, Elmore - Rollin' and Tumblin'
TTITLE12=Dawkins, Jimmy - Triple Trebles
TTITLE13=King, B.B. - She's Dynamite
TTITLE14=T-Model Ford and Gravelroad - How Many More Years
EXTD=
EXTT0=
EXTT1=
EXTT2=
EXTT3=
EXTT4=
EXTT5=
EXTT6=
EXTT7=
EXTT8=
EXTT9=
EXTT10=
EXTT11=
EXTT12=
EXTT13=
EXTT14=
PLAYORDER=
